<?xml version="1.0" encoding="UTF-8" standalone="no"?>
<svg
   id="Layer_2"
   data-name="Layer 2"
   viewBox="0 0 500 500"
   version="1.1"
   sodipodi:docname="noticioso-icon-500px.svg"
   inkscape:export-filename="noticioso-icon-500px.png"
   inkscape:export-xdpi="294.91"
   inkscape:export-ydpi="294.91"
   inkscape:version="1.2 (dc2aeda, 2022-05-15)"
   xmlns:inkscape="http://www.inkscape.org/namespaces/inkscape"
   xmlns:sodipodi="http://sodipodi.sourceforge.net/DTD/sodipodi-0.dtd"
   xmlns="http://www.w3.org/2000/svg"
   xmlns:svg="http://www.w3.org/2000/svg">
  <sodipodi:namedview
     id="namedview106"
     pagecolor="#ffffff"
     bordercolor="#000000"
     borderopacity="0.25"
     inkscape:showpageshadow="2"
     inkscape:pageopacity="0.0"
     inkscape:pagecheckerboard="0"
     inkscape:deskcolor="#d1d1d1"
     showgrid="false"
     inkscape:zoom="0.62013265"
     inkscape:cx="311.22374"
     inkscape:cy="294.29188"
     inkscape:window-width="1390"
     inkscape:window-height="1027"
     inkscape:window-x="0"
     inkscape:window-y="25"
     inkscape:window-maximized="0"
     inkscape:current-layer="g102" />
  <defs
     id="defs4">
    <style
       id="style2">
      .cls-1 {
        fill: #fff;
      }
    </style>
  </defs>
  <g
     id="Layer_1-2"
     data-name="Layer 1">
    <g
       id="g102">
      <rect
         style="fill:#fffdfd;fill-opacity:1;stroke-width:1.00775;-inkscape-stroke:none;stop-color:#000000"
         id="rect414"
         width="500"
         height="500"
         x="0"
         y="-3.9968029e-15" />
      <path
         class="cls-1"
         d="M349.13,250.21c.27,4.91.41,9.58-.36,14.54-.52,3.35-1.44,6.84-3.02,10.63-.33.8-1.54,3.05-3.07,5.44-2.57,4.04-6.04,8.48-7.79,7.05-.28-.23,1.49-4.57,2.09-7.05.09-.38.17-.72.19-1,.47-4.89.33-10.04-.49-15.08-.83-5.09-2.35-10.06-4.63-14.54-4.11-8.06-10.67-14.52-20.1-17.16-3.13-.87-7.35,1.03-7.65-3.84-.09-1.38.76-2.94.76-4.52.01-6.72-1.37-19.24-.01-25.16.15-.67,4.99-9.57,6.09-10.9,7.24-8.72,17.79-8.48,26.43-1.88,16.33,12.49,11.16,33.27,11.09,50.98-.01,4.5.28,8.57.49,12.48Z"
         id="path6" />
      <path
         d="M492.38,311.43c-1.24,4.91-2.63,9.76-4.15,14.54h-84.84c-.13-.18-.27-.36-.39-.55-.94-.81-2-3.36-2-3.36-.31-.66-1.68-5.19-3.3-10.64h94.69Z"
         id="path8" />
      <path
         d="M467.87,372.66c-2.79,4.96-5.76,9.81-8.87,14.54h-48.41c0-.79.04-1.58.09-2.36.22-3.3,3.21-7.44,4.27-12.18h52.92Z"
         id="path10" />
      <path
         d="M113.32,356.59H23.82c-2.25-4.76-4.37-9.61-6.32-14.54h90.5c1.76,3.97,3.59,9.12,5.32,14.54Z"
         id="path12" />
      <path
         d="M84.93,295.36H4.12c-.89-4.8-1.63-9.65-2.23-14.54h63.16c5.19,3.23,10.93.31,13.3,2.8,2,4.03,4.25,7.91,6.59,11.74Z"
         id="path14" />
      <path
         d="M180.31,84.3c-22.9,9.32-44,23.26-62.11,41.39-13.11,13.1-24.03,27.77-32.6,43.54-5.31.69-11.25,1.33-17.34,2.13,9.91-20.73,23.22-39.52,39.66-55.96,18.54-18.54,40.07-33.11,64-43.3,3.16-1.34,6.35-2.61,9.55-3.78-3.5,4.77-3.92,10.72-1.16,15.98Z"
         id="path16" />
      <path
         d="M121.21,387.2H41c-3.12-4.73-6.08-9.58-8.87-14.54h85.88c.87,3.23,1.61,6.16,2.19,8.56.31,1.28.65,3.5,1.01,5.98Z"
         id="path18" />
      <path
         d="M101.22,325.97H11.77c-1.53-4.78-2.91-9.63-4.15-14.54h86.96c.96,1.74,1.89,3.5,2.76,5.29.61,1.26,2.23,5.18,3.88,9.25Z"
         id="path20" />
      <path
         d="M499.99,250.21c0,4.89-.16,9.73-.44,14.54h-116c-1.46-4.81-2.94-9.67-4.45-14.54h57.52c-1.82-46.84-21.13-90.82-54.83-124.53-19.84-19.84-43.24-34.68-68.68-43.92-.1-2.88-.6-6.03-1.59-9.99-.57-2.28-1.32-4.48-2.25-6.59,6.35,1.98,12.61,4.29,18.79,6.92,23.93,10.19,45.46,24.76,64,43.3s33.11,40.07,43.3,64c9.63,22.58,14.91,46.37,15.79,70.81h48.83Z"
         id="path22" />
      <path
         d="M53.29,264.75H.44c-.28-4.81-.44-9.65-.44-14.54h46.02c2.04,4.81,4.54,9.79,7.27,14.54Z"
         id="path24" />
      <path
         d="M498.1,280.82c-.6,4.89-1.34,9.74-2.22,14.54h-102.94c-.68-2.27-1.19-4-1.42-4.73-1-3.19-2.02-6.47-3.05-9.81h109.64Z"
         id="path26" />
      <path
         d="M482.5,342.05c-1.96,4.93-4.07,9.78-6.32,14.54h-60.86l.04-1.31c-.07-3.8-1.48-8.68-3.19-13.23h70.33Z"
         id="path28" />
      <path
         class="cls-1"
         d="M400.73,356.59c-.06,5.36-.67,11.27-2.09,16.07-.94,3.19-2.24,5.89-3.98,7.6-7.94,7.86-21.95,3.11-23.01,4.18-.42.43-.33,1.48-.2,2.76.35,3.31.99,8.11-6.24,7.13-5.41-.73-5.32-4.43-5.02-7.13.15-1.32.34-2.39-.03-2.76-1.04-1.04-16.39,2.78-24.91-4.57-2.46-2.12-4.24-4.56-5.58-7.2-2.47-4.88-3.41-10.45-4.24-16.07-.65-4.34-1.23-8.7-2.41-12.77-.18-.61-.4-1.2-.65-1.77-1.08-2.48-2.62-4.65-2.81-7.41,21.07.33,42.13,1.13,63.22.8,3.9-.06,7.45-2.2,11.12.3.8.55,2.79,3.66,4.27,6.32.93,1.67,1.66,3.17,1.77,3.74.52,2.69.81,6.57.77,10.8Z"
         id="path30" />
      <path
         class="cls-1"
         d="M108,342.05H17.5c-2.09-5.27-3.99-10.63-5.73-16.07h89.45c2.17,5.36,4.39,10.96,4.39,10.96,0,0,.76,1.53.9,2.04.48.92.98,1.96,1.48,3.08Z"
         id="path32" />
      <path
         class="cls-1"
         d="M488.23,325.97c-1.74,5.44-3.64,10.8-5.73,16.07h-70.33c-.09-.23-.17-.44-.25-.67-.2-.53-.41-1.05-.62-1.57-.58-1.44-1.18-2.81-1.74-4.09-.17-.39-.34-.76-.51-1.12-.33-.72-.65-1.4-.95-2.02-.15-.31-.3-.6-.44-.89s-.27-.55-.39-.8c-.07-.12-.12-.25-.18-.36-.12-.23-.23-.44-.33-.64-.46-.89-.73-1.39-.74-1.39-1.08-.73-1.94-1.58-2.62-2.53h84.84Z"
         id="path34" />
      <path
         class="cls-1"
         d="M476.18,356.59c-2.58,5.47-5.36,10.83-8.32,16.07h-52.92c.23-1.03.37-2.08.37-3.16v-8.77s-.07-.02-.11-.04l.12-4.1h60.86Z"
         id="path36" />
      <path
         class="cls-1"
         d="M118.01,372.66H32.13c-2.96-5.24-5.74-10.6-8.32-16.07h89.5c1.73,5.42,3.35,11.09,4.69,16.07Z"
         id="path38" />
      <path
         class="cls-1"
         d="M311.28,387.2c.27,16.55.59,37.85-.47,39.43-2.54,3.78-12.66-3.9-14.56-6.97-3.24-5.22-2.07-24.61-1.98-31.8,0-.22.01-.44.02-.66.09-4.8.43-9.7.68-14.54.04-.79.09-1.58.12-2.36.08-1.87-.89-8.85.36-8.85,2.33,0,15.89-.58,16.47,0,.6.61-.75,5.85-.8,7.26-.03.86-.04,2.22-.03,3.95.02,3.58.1,8.77.2,14.54Z"
         id="path40" />
      <path
         class="cls-1"
         d="M267.43,385.9c-.23.33-1.56.79-3.64,1.29-10.18,2.51-38.32,6.61-42.74,7.1-17.24,1.91-70.75,7.02-83.97-1.61-1.85-1.21-2.62-3.25-3.02-5.49-.44-2.51-.43-5.27-.96-7.39-.58-2.34-1.21-4.73-1.86-7.15-1.42-5.23-3.02-10.62-4.77-16.07-1.55-4.82-3.21-9.69-4.97-14.54-1.98-5.42-4.09-10.81-6.3-16.07-2.09-4.99-4.28-9.86-6.55-14.54-1.85-3.82-3.77-7.52-5.71-11.04-.53-.96-1.76-2.81-3.27-5.04-3.37-4.97-8.19-11.76-9.9-14.54-.37-.6-.6-1.02-.63-1.18-.16-.8,4.81-9,6.3-14.9.24-.96.39-1.86.42-2.65.07-2.65-1.65-7.15-4.07-11.89-3.69-7.2-9.02-14.91-12.18-17.27-3.55-2.65-9.11-3.55-14.26-3.52-2.52.02-4.93.26-6.95.64l-6.59-7.74-11.04-12.97,14.6-3.04,16.03-3.34,79.07-16.46c3.83-1.25,7.57-3.04,11.06-5.02,3.71-2.1,6.7-7.22,10.64-4.76,3.24,2.38,38.72,37.9,36.33,39.88-.46.39-2.49-.84-3.46-.81-8.85.29-19.56,2.6-21.63,12.87-1.85,9.16,2.22,8.99,5.34,15,1.16,2.25,2.14,4.43,3.07,6.54,2.25,5.17,4.19,9.97,7.76,14.54,1.67,2.14,3.69,4.22,6.27,6.25,8.54,6.77,26.97,4.75,29.09,6.91.24.25.76,1.34,1.44,2.91,1.59,3.71,4.04,10.12,5.72,14.54.76,2.03,1.37,3.64,1.65,4.39,1.45,3.81,2.88,7.73,4.27,11.68,1.7,4.83,3.34,9.7,4.89,14.54.87,2.71,1.72,5.41,2.52,8.07.39,1.3,1.22,4.2,2.26,8,1.13,4.1,2.51,9.23,3.87,14.54,1.42,5.5,2.83,11.19,3.92,16.07,1.58,7.02,2.52,12.39,1.95,13.25Z"
         id="path42" />
      <path
         class="cls-1"
         d="M273.11,72.15c0,1.45-.08,2.78-.26,3.85-.04.25-.87,1.93-1.14,1.91-.65-.07-7.27-4.3-11.63-6.91-1.48-.89-2.69-1.58-3.32-1.88-6.32-2.92-16.97-6.8-23.7-8.48-1.29-.33-6.16-.2-6.17-.74,0-.42.55-1.39,1.33-2.52,1.56-2.29,4.04-5.28,4.78-5.92,5.76-5.05,27.29-8.99,33.56-5.93,1.58.77,3.98,7.1,5.31,11.86.6,2.14.98,3.97.98,4.83,0,2.7.29,6.63.26,9.94Z"
         id="path44" />
      <path
         class="cls-1"
         d="M156.21,173.1c-2.36,1.38-9.57,2.76-12.65,3.44-14.26,3.13-29.57,4.54-43.97,7.36-6.8,1.33-15.03,3.46-23.44,5.57-5.66,1.41-11.41,2.81-16.87,3.94-6.1,1.26-11.84,2.2-16.72,2.44-1.13.06-6.02-.28-6.39-.7-3.08-3.52,13.22-6.38,14.41-6.65,3.72-.86,7.54-1.71,11.41-2.54,5.6-1.21,11.33-2.38,17.12-3.53,18.7-3.7,38.03-7.07,55.72-10.02,5.41-.9,15.7-3.26,20.58-3.24,3.15,0,3.63,2.29.81,3.95Z"
         id="path46" />
      <path
         class="cls-1"
         d="M500,250c0,.07,0,.15,0,.21h-48.83c-.88-24.43-6.16-48.23-15.79-70.81-10.19-23.93-24.76-45.46-43.3-64s-40.07-33.11-64-43.3c-6.18-2.63-12.45-4.94-18.79-6.92-14.02-32.23-66.34-45.51-89.6-16.33-1.78,2.24-5.41,10.22-5.91,10.56-.89.58-11.57-.09-14.05.12-8.79.76-14.9,4.24-18.24,8.79-3.21,1.17-6.39,2.44-9.55,3.78-23.93,10.19-45.46,24.76-64,43.3-16.44,16.44-29.75,35.23-39.66,55.96-16.67,2.18-34.41,5.55-43.24,14.56-17.48,17.86,9.74,34.09,19.17,47.57,1.54,3.6-1.88,6.88-.17,11.65.6,1.66,1.26,3.35,1.99,5.07H0v-.21C0,111.93,111.93,0,250,0s250,111.93,250,250Z"
         id="path48" />
      <path
         class="cls-1"
         d="M256.76,84.04c-8.12,1.52-16.35,3.1-24.67,2.09-3.31-.4-19.28-5.59-29.29-9.31-3.87-1.44-6.85-2.66-7.87-3.29-.79-.5-1.34.02-.97-1.73,10.61-1.57,21.21-1.34,31.46.56,10.97,2.04,21.55,5.98,31.34,11.69Z"
         id="path50" />
      <path
         class="cls-1"
         d="M236,169.02c-.16.21-3.78.89-5.03,1.48-5.81,2.72-13.94,7.07-19.01,10.87-1.5,1.12-7.81,7.72-8.37,7.63-1.23-.2-13.9-15.68-16.89-18.38-5.82-5.27-13.96-11.65-21.69-13.54-15.87-3.88-54.12,7.89-71.98,11.05-2.28.41-4.77.76-7.41,1.11,8.57-15.77,19.49-30.44,32.6-43.54,18.12-18.12,39.21-32.07,62.11-41.39,2.25,4.3,6.62,8.15,13.22,10.5,3.15,1.13,13.69,1.76,14.21,2.26,1.04.99-.39,24.46,0,28.72,1.09,11.38,11.38,28.1,22.54,31.86,1.8.61,5.58.52,5.79.73.38.36.24,10.23-.09,10.65Z"
         id="path52" />
      <path
         class="cls-1"
         d="M284.65,127.65c-1.85.36-5.02-.43-6.28.23-.48.25-4.58,7.49-5.9,9.04-14.84,17.45-44.14,16.56-51.74-7.26-3.46-10.86-.44-22.95-.73-34.12,8.86,4.57,17.08,5.38,26.82,3.47,1.64-.32,8.81-3.03,9.16-2.71.21.2,1.04,3.85,1.91,5.38,4.83,8.52,9.6,12.85,19.97,13.04,8.27.15.65-9.24,8.42-10.74,12.24-2.38,14.05,20.67-1.64,23.68Z"
         id="path54" />
      <path
         class="cls-1"
         d="M296.58,90.17c-1.66-2.86-11.46-5.53-12.12-7.41-.65-1.85.04-5.44.67-8.7.37-1.92.72-3.72.76-5,.09-2.81-.96-6.46-1.02-9.84-.01-.95.05-1.88.24-2.77,1.04,1.1,2.06,2.24,3.05,3.39,4.36,5.13,8.07,10.82,9.41,17.05.89,4.18.74,8.6-.99,13.27Z"
         id="path56" />
      <path
         class="cls-1"
         d="M298.34,186.56c-2.08,5.49-3.58,14.04-4.57,19.95-.73,4.35-2.62,27.91-3.44,29.12-.71,1.04-7.21,1.22-8.56.79-1.69-.55-.57-5.9-.39-7.82,1.09-11.98,4.71-41.85,12.54-50.28,2.01-2.17,13.16-8.31,14.92-6.91.73.57-9.2,11.69-10.5,15.15Z"
         id="path58" />
      <path
         class="cls-1"
         d="M233.43,186.78c-4.89-.53-2.67-15.55,1.11-13.09.65.43,5.74,13.83-1.11,13.09Z"
         id="path60" />
      <path
         class="cls-1"
         d="M289.36,162.96l-26.85,29.11c-2.43-2.92-11.61-10.66-9.97-14.52l31.01-25.31c.73.7,3.74,9.2,5.8,10.72Z"
         id="path62" />
      <path
         class="cls-1"
         d="M436.63,250.21h-57.52c-5.66-18.28-11.65-36.65-18.16-52.38-12.69-30.71-31.24-26.89-55.19-39.04-7.01-3.55-13.38-12.41-10.56-20.59.45-1.32,4.4-3.1,5.6-4.36,5.31-5.57,9.21-14.81,8.85-22.62-.33-7.2-1.96-4.86.36-12.63,2.09-6.98,3.31-11.44,3.13-16.83,25.44,9.23,48.84,24.08,68.68,43.92,33.71,33.71,53.02,77.69,54.83,124.53Z"
         id="path64" />
      <path
         class="cls-1"
         d="M298.07,274.37c-.1,1.33-.89,4.12-1.95,6.46-.79,1.74-1.71,3.22-2.6,3.66-.97.47-6.68-1.54-12.13-3.66-4.38-1.69-8.6-3.46-10.05-4.06-7.82-3.23-18.95-9.87-27.62-12.01-1.2-.29-2.35-.5-3.43-.6-5.08-.48-26.98,1.4-29.11-2.3-.33-.57-.57-2.11-.36-2.31.55-.52,10.34-.39,10.73-.77.28-.26.22-7.35-.05-7.63-1.42-1.48-13.15-.15-16.12-.93-.04,0-.09-.02-.14-.04-1.99-.62-2.78-4.51-2.08-5.2,1.69-1.64,22.57,2.35,17.24-8.43-1.93-3.91-22.03.76-23.97-2.84-.33-.62-1.01-3.5-.61-4.08,1.72-2.51,27.94-2.69,32.15-2.2,10.46,1.24,16.97,9.59,26,13.84,4.94,2.33,15.92,5.48,25.03,8.94,6.35,2.41,11.78,4.98,13.65,7.53,1.2,1.64,2.48,4.23,3.5,7.01,1.26,3.42,2.12,7.1,1.93,9.62Z"
         id="path66" />
      <path
         class="cls-1"
         d="M73.71,247.27c-.33.35-6.06.93-10.25,1.17-2.24.13-4.04.16-4.31,0-1.65-.95-1.64-4.76-1.53-6.53,1.53.31,3.87.16,6.27-.01,3.09-.23,6.27-.52,7.9.01.95.31,2.11,5.15,1.92,5.36Z"
         id="path68" />
      <path
         class="cls-1"
         d="M308.85,347.66h-16.85l-.76-5.61-2.19-16.07-1.98-14.54-1.96-14.35c3.87,4.49,5.69,8.11,12.33,8.89l1.5,5.46,3.98,14.54,4.4,16.07,1.53,5.61Z"
         id="path70" />
      <path
         class="cls-1"
         d="M495.88,295.36c-.99,5.42-2.16,10.78-3.5,16.07h-94.69c-1.62-5.42-3.48-11.75-4.76-16.07h102.94Z"
         id="path72" />
      <path
         class="cls-1"
         d="M377.04,311.43h-46.74v-6.69c0-.25,3.85.18,4.92-.06,6.31-1.38,11.62-4.76,15.7-9.33h20.91l5.21,16.07Z"
         id="path74" />
      <path
         class="cls-1"
         d="M94.58,311.43H7.62c-1.34-5.29-2.51-10.65-3.5-16.07h80.81c3.24,5.34,6.62,10.61,9.65,16.07Z"
         id="path76" />
      <path
         class="cls-1"
         d="M197.66,494.5c-65.3-13.91-121.15-53.31-156.66-107.3h80.21c.77,5.33,1.67,11.9,2.71,13.3,3.04,4.07,17.21,7.67,22.27,8.37,16.12,2.22,34.58.71,50.83.1l.64,85.53Z"
         id="path78" />
      <path
         class="cls-1"
         d="M254.35,499.94c-1.45.03-2.89.06-4.35.06-1.73,0-3.45-.03-5.16-.07.52-24.8.32-49.63.46-74.47.71-3.69,5.73-2.67,8.4-4.24l.65,78.71Z"
         id="path80" />
      <path
         class="cls-1"
         d="M395.99,418.36c-.49,2.41-4.33,7.18-6.67,7.89l-61.57.21c-1.89-.64-2.61-5.98-2.8-7.93-.9-9.6.55-20.43-.78-30.25l10.43,8.32c2.67,2.57,10,.77,11.81,1.98,2.44,1.63.52,10.5,7.61,12.31,4.58,1.16,21.63.25,25.06-2.95,2.53-2.37,2.21-9.32,2.57-9.68.46-.46,11.78-2.15,12.82-2.2.84-.03,1.52-.33,2.11.59.59.92-.23,19.88-.6,21.7Z"
         id="path82" />
      <path
         class="cls-1"
         d="M459,387.2c-30.18,45.89-75.06,81.24-127.94,99.35v-45.4c17.4-.35,35.05,1.97,52.46.75,11.31-.79,20.53-5.06,25.8-15.56,6-11.99,1.12-26.42,1.27-39.14h48.41Z"
         id="path84" />
      <polygon
         class="cls-1"
         points="367.12 280.82 358.75 280.82 362.45 266.44 367.12 280.82"
         id="polygon86" />
      <path
         class="cls-1"
         d="M499.56,264.75c-.32,5.41-.8,10.77-1.45,16.07h-109.64c-1.61-5.23-3.24-10.61-4.91-16.07h116Z"
         id="path88" />
      <path
         class="cls-1"
         d="M79.62,264.75c-1.24.81-2.89,1.42-4.87,1.6-3.79.34-5.81-.07-7.34-1.6-1.05-1.04-1.88-2.61-2.88-4.84l12.87-1.71c6-.14,5.96,4.12,2.22,6.55Z"
         id="path90" />
      <path
         class="cls-1"
         d="M65.05,280.82H1.89c-.65-5.31-1.13-10.66-1.45-16.07h52.84c2.72,4.73,5.66,9.24,8.59,13.12,1.01,1.33,2.08,2.28,3.17,2.95Z"
         id="path92" />
      <path
         d="M415.36,355.28c-.07-3.8-1.48-8.68-3.19-13.23-.09-.23-.17-.44-.25-.67-.2-.53-.41-1.05-.62-1.57-.58-1.44-1.18-2.81-1.74-4.09-.17-.39-.34-.76-.51-1.12-.33-.72-.65-1.4-.95-2.02-.15-.31-.3-.6-.44-.89-.14-.28-.27-.55-.39-.8-.07-.12-.12-.25-.18-.36-.12-.23-.23-.44-.33-.64-.46-.89-.73-1.39-.74-1.39-1.08-.73-1.94-1.58-2.62-2.53-.13-.18-.27-.36-.39-.55-.94-.81-2-3.36-2-3.36-.31-.66-1.68-5.19-3.3-10.64-1.62-5.42-3.48-11.75-4.76-16.07-.68-2.27-1.19-4-1.42-4.73-1-3.19-2.02-6.47-3.05-9.81-1.61-5.23-3.24-10.61-4.91-16.07-1.46-4.81-2.94-9.67-4.45-14.54-5.66-18.28-11.65-36.65-18.16-52.38-12.69-30.71-31.24-26.89-55.19-39.04-7.01-3.55-13.38-12.41-10.56-20.59.45-1.32,4.4-3.1,5.6-4.36,5.31-5.57,9.21-14.81,8.85-22.62-.33-7.2-1.96-4.86.36-12.63,2.09-6.98,3.31-11.43,3.13-16.83-.1-2.88-.6-6.03-1.59-9.99-.57-2.28-1.32-4.48-2.25-6.59-14.02-32.23-66.34-45.51-89.6-16.33-1.78,2.24-5.41,10.22-5.91,10.56-.89.58-11.57-.09-14.05.12-8.79.76-14.9,4.24-18.24,8.79-3.5,4.77-3.92,10.72-1.16,15.98,2.25,4.3,6.62,8.15,13.22,10.5,3.16,1.13,13.69,1.76,14.21,2.26,1.04.99-.39,24.46,0,28.72,1.09,11.38,11.38,28.1,22.54,31.86,1.8.61,5.58.52,5.79.73.39.36.24,10.23-.09,10.65-.16.21-3.78.89-5.03,1.48-5.81,2.72-13.94,7.07-19.01,10.87-1.51,1.12-7.81,7.72-8.37,7.63-1.23-.2-13.9-15.68-16.89-18.38-5.82-5.27-13.96-11.65-21.69-13.54-15.87-3.88-54.12,7.89-71.98,11.05-2.28.41-4.77.76-7.41,1.11-5.31.69-11.25,1.33-17.34,2.13-16.67,2.18-34.41,5.55-43.24,14.56-17.48,17.86,9.74,34.09,19.17,47.57,1.54,3.6-1.88,6.88-.17,11.65.6,1.66,1.27,3.35,1.99,5.07,2.04,4.81,4.54,9.79,7.27,14.54,2.72,4.73,5.66,9.24,8.59,13.12,1.01,1.33,2.08,2.28,3.17,2.95,5.19,3.23,10.93.31,13.3,2.8,2,4.03,4.25,7.91,6.59,11.74,3.24,5.34,6.62,10.61,9.65,16.07.96,1.74,1.89,3.5,2.76,5.29.61,1.26,2.23,5.18,3.88,9.25,2.17,5.36,4.39,10.96,4.39,10.96,0,0,.76,1.53.9,2.04.48.92.98,1.96,1.48,3.08,1.76,3.97,3.59,9.12,5.32,14.54,1.73,5.42,3.35,11.09,4.69,16.07.87,3.23,1.61,6.16,2.19,8.56.31,1.28.65,3.5,1.01,5.98.77,5.33,1.67,11.9,2.71,13.3,3.04,4.07,17.21,7.67,22.27,8.37,16.12,2.22,34.58.71,50.83.1l.64,85.53c15.26,3.25,31.03,5.11,47.18,5.44.52-24.8.32-49.63.46-74.47.71-3.69,5.73-2.67,8.4-4.24l.65,78.71c26.81-.46,52.6-5.13,76.72-13.39v-45.4c17.4-.35,35.05,1.97,52.46.75,11.31-.79,20.53-5.06,25.8-15.56,6-11.99,1.12-26.42,1.26-39.14,0-.79.04-1.58.09-2.36.22-3.3,3.21-7.44,4.27-12.18.23-1.02.37-2.08.37-3.16v-8.77s-.07-.02-.11-.04l.12-4.1.04-1.31ZM350.92,295.36c3.41-3.8,5.97-8.43,7.53-13.41l.29-1.13,3.71-14.39,4.67,14.39,4.71,14.54,5.21,16.07,3.05,9.4h-47.87c-.12,0-1.91,1.3-1.91-.38v-15.71c0-.25,3.85.18,4.92-.06,6.31-1.38,11.62-4.76,15.7-9.33ZM337.56,186.75c16.33,12.49,11.16,33.27,11.09,50.98-.01,4.5.28,8.57.49,12.48.27,4.91.41,9.58-.36,14.54-.52,3.35-1.44,6.84-3.02,10.63-.33.8-1.54,3.05-3.07,5.44-2.57,4.04-6.04,8.48-7.79,7.05-.28-.23,1.49-4.57,2.09-7.05.09-.38.17-.72.19-1,.47-4.89.33-10.04-.49-15.08-.83-5.09-2.35-10.06-4.63-14.54-4.11-8.06-10.67-14.52-20.1-17.16-3.13-.87-7.35,1.03-7.66-3.84-.09-1.38.76-2.94.76-4.52.01-6.72-1.37-19.24-.01-25.16.15-.67,4.99-9.57,6.09-10.9,7.24-8.72,17.79-8.48,26.42-1.88ZM308.85,171.41c.73.57-9.2,11.69-10.5,15.15-2.08,5.49-3.58,14.04-4.57,19.95-.73,4.35-2.62,27.91-3.44,29.12-.71,1.04-7.21,1.22-8.56.79-1.69-.55-.57-5.9-.39-7.82,1.09-11.98,4.71-41.85,12.54-50.28,2.01-2.17,13.16-8.31,14.92-6.91ZM262.51,192.08c-2.43-2.92-11.61-10.66-9.97-14.52l31.01-25.31c.73.7,3.74,9.2,5.8,10.72l-26.85,29.11ZM284.87,59.22c-.01-.95.05-1.88.24-2.77,1.04,1.1,2.06,2.24,3.05,3.39,4.36,5.13,8.07,10.82,9.41,17.05.89,4.18.74,8.6-.99,13.27-1.66-2.86-11.46-5.53-12.12-7.41-.65-1.85.04-5.44.67-8.7.37-1.92.72-3.72.76-5,.09-2.81-.96-6.46-1.02-9.84ZM228.21,57.37c1.56-2.29,4.04-5.28,4.78-5.92,5.76-5.05,27.29-8.99,33.56-5.93,1.59.77,3.98,7.1,5.31,11.86.6,2.14.98,3.97.98,4.83,0,2.7.29,6.63.26,9.94,0,1.45-.08,2.78-.26,3.85-.04.25-.87,1.93-1.14,1.91-.65-.07-7.27-4.3-11.63-6.91-1.48-.89-2.69-1.58-3.32-1.88-6.32-2.92-16.97-6.8-23.7-8.48-1.29-.33-6.16-.2-6.17-.74,0-.42.55-1.39,1.33-2.52ZM202.8,76.81c-3.87-1.44-6.85-2.66-7.87-3.29-.79-.5-1.34.02-.97-1.73,10.61-1.57,21.21-1.34,31.46.56,10.97,2.04,21.55,5.98,31.34,11.69-8.12,1.52-16.35,3.1-24.67,2.09-3.31-.4-19.28-5.59-29.29-9.31ZM220.73,129.67c-3.46-10.86-.44-22.95-.73-34.12,8.86,4.57,17.08,5.38,26.82,3.47,1.64-.32,8.81-3.03,9.16-2.71.21.2,1.04,3.85,1.91,5.38,4.83,8.52,9.6,12.85,19.97,13.04,8.27.15.65-9.24,8.42-10.74,12.24-2.38,14.05,20.67-1.64,23.68-1.85.36-5.02-.43-6.28.23-.48.25-4.58,7.49-5.9,9.04-14.84,17.45-44.14,16.56-51.74-7.26ZM234.54,173.7c.65.43,5.74,13.83-1.11,13.09-4.89-.53-2.68-15.55,1.11-13.09ZM50.58,188.5c3.72-.86,7.54-1.71,11.41-2.54,5.6-1.21,11.33-2.38,17.12-3.53,18.7-3.7,38.03-7.07,55.72-10.02,5.41-.9,15.7-3.26,20.58-3.24,3.15,0,3.63,2.29.81,3.95-2.36,1.38-9.57,2.76-12.65,3.44-14.26,3.13-29.57,4.54-43.97,7.36-6.8,1.33-15.03,3.46-23.44,5.57-5.66,1.41-11.41,2.81-16.87,3.94-6.1,1.26-11.84,2.2-16.72,2.44-1.13.06-6.02-.28-6.39-.7-3.08-3.52,13.22-6.38,14.41-6.65ZM59.15,248.44c-1.65-.95-1.64-4.76-1.53-6.53,1.53.31,3.87.16,6.27-.01,3.09-.23,6.27-.52,7.9.01.95.31,2.11,5.15,1.92,5.36-.33.35-6.06.93-10.25,1.17-2.24.13-4.04.16-4.31,0ZM79.62,264.75c-1.24.81-2.89,1.42-4.87,1.6-3.79.34-5.81-.07-7.34-1.6-1.05-1.04-1.88-2.61-2.88-4.84l12.87-1.71c6-.14,5.96,4.12,2.22,6.55ZM267.43,385.9c-.23.33-1.56.79-3.64,1.29-10.18,2.51-38.32,6.61-42.74,7.1-17.24,1.91-70.75,7.02-83.97-1.61-1.85-1.21-2.62-3.25-3.02-5.49-.44-2.51-.43-5.27-.96-7.39-.58-2.34-1.21-4.73-1.86-7.15-1.42-5.23-3.02-10.62-4.77-16.07-1.55-4.82-3.21-9.69-4.97-14.54-1.98-5.42-4.09-10.81-6.3-16.07-2.09-4.99-4.28-9.86-6.55-14.54-1.85-3.82-3.77-7.52-5.71-11.04-.53-.96-1.76-2.81-3.27-5.04-3.37-4.97-8.19-11.76-9.9-14.54-.37-.6-.6-1.02-.63-1.18-.16-.8,4.81-9,6.3-14.9.24-.96.39-1.86.42-2.65.07-2.65-1.65-7.15-4.07-11.89-3.69-7.2-9.02-14.91-12.18-17.27-3.55-2.65-9.11-3.55-14.26-3.52-2.52.02-4.93.26-6.95.64l-6.59-7.74-11.04-12.97,14.6-3.04,16.03-3.34,79.07-16.46c3.83-1.25,7.58-3.04,11.06-5.02,3.71-2.1,6.7-7.22,10.64-4.76,3.24,2.38,38.72,37.9,36.33,39.88-.46.39-2.49-.84-3.46-.81-8.85.29-19.56,2.6-21.63,12.87-1.85,9.16,2.22,8.99,5.34,15,1.16,2.25,2.14,4.43,3.07,6.54,2.25,5.17,4.19,9.97,7.76,14.54,1.67,2.14,3.69,4.22,6.27,6.25,8.54,6.77,26.97,4.75,29.09,6.91.24.25.76,1.34,1.44,2.91,1.59,3.71,4.04,10.12,5.72,14.54.76,2.03,1.37,3.64,1.65,4.39,1.45,3.81,2.88,7.73,4.27,11.68,1.7,4.83,3.34,9.7,4.89,14.54.87,2.71,1.72,5.41,2.52,8.07.39,1.3,1.22,4.2,2.26,8,1.13,4.1,2.51,9.23,3.87,14.54,1.42,5.5,2.83,11.19,3.92,16.07,1.58,7.02,2.52,12.39,1.95,13.25ZM271.33,276.76c-7.82-3.23-18.95-9.87-27.62-12.01-1.2-.29-2.35-.5-3.43-.6-5.08-.48-26.98,1.4-29.11-2.3-.33-.57-.57-2.11-.36-2.31.55-.52,10.34-.39,10.73-.77.28-.26.22-7.35-.05-7.63-1.42-1.48-13.15-.15-16.12-.93-.04,0-.09-.02-.14-.04-1.99-.62-2.78-4.51-2.08-5.2,1.69-1.64,22.57,2.35,17.24-8.43-1.93-3.91-22.03.76-23.97-2.84-.33-.62-1.01-3.5-.61-4.08,1.72-2.51,27.94-2.69,32.15-2.2,10.46,1.24,16.97,9.59,26,13.84,4.94,2.33,15.92,5.48,25.03,8.94,6.35,2.41,11.78,4.98,13.65,7.53,1.2,1.64,2.48,4.23,3.5,7.01,1.26,3.42,2.12,7.1,1.93,9.62-.1,1.33-.89,4.12-1.95,6.46-.79,1.74-1.71,3.22-2.6,3.66-.97.47-6.68-1.54-12.13-3.66-4.38-1.69-8.6-3.46-10.05-4.06ZM291.23,342.05l-2.19-16.07-1.98-14.54-1.96-14.35c3.87,4.49,5.69,8.11,12.33,8.89l1.5,5.46,3.98,14.54,4.4,16.07,1.53,5.61h-16.85l-.76-5.61ZM311.09,372.66c.02,3.58.1,8.77.2,14.54.27,16.55.59,37.85-.47,39.43-2.54,3.78-12.66-3.9-14.56-6.97-3.24-5.22-2.07-24.61-1.98-31.8,0-.22.01-.44.02-.66.09-4.8.43-9.7.68-14.54.04-.79.09-1.58.12-2.36.08-1.87-.89-8.85.36-8.85,2.33,0,15.89-.58,16.47,0,.6.61-.75,5.85-.8,7.26-.03.86-.04,2.22-.03,3.95ZM312.06,295.36c-.19.05-.39.1-.58.13-.85.14-3.93.07-6.5-.13-1.88-.14-3.48-.35-3.79-.59-.58-.46,6.64-9.18,7.71-12.59.14-.45.26-.9.39-1.36,1.45-5.46,1.37-10.83.1-16.07-.69-2.86-1.73-5.67-3.06-8.44-.49-1.02-2.41-3.55-4.35-6.1-2.46-3.22-4.94-6.48-4.62-6.77.88-.75,10.4.5,12.24,1.16,2.63.92,5.14,3,7.33,5.61,3.54,4.25,6.2,9.94,7.04,14.54.08.45.15.89.19,1.31.39,3.65.02,9.35-1.37,14.76-1.76,6.86-5.16,13.26-10.72,14.54ZM395.99,418.36c-.49,2.41-4.32,7.18-6.67,7.89l-61.57.21c-1.89-.64-2.61-5.98-2.8-7.93-.9-9.6.55-20.43-.78-30.25l10.43,8.32c2.67,2.57,10,.77,11.81,1.98,2.44,1.63.52,10.5,7.61,12.31,4.58,1.16,21.63.25,25.06-2.95,2.53-2.37,2.21-9.32,2.57-9.68.46-.46,11.78-2.15,12.82-2.2.84-.03,1.52-.33,2.12.59.59.92-.23,19.88-.6,21.7ZM400.73,356.59c-.06,5.36-.67,11.27-2.09,16.07-.94,3.19-2.24,5.89-3.98,7.6-7.94,7.86-21.95,3.11-23.01,4.18-.42.43-.33,1.48-.2,2.76.35,3.31.99,8.11-6.24,7.13-5.41-.73-5.32-4.43-5.02-7.13.15-1.32.34-2.39-.03-2.76-1.04-1.04-16.39,2.78-24.91-4.57-2.46-2.12-4.24-4.56-5.58-7.2-2.47-4.88-3.41-10.45-4.24-16.07-.65-4.34-1.23-8.7-2.41-12.77-.18-.61-.4-1.2-.65-1.77-1.08-2.48-2.62-4.65-2.81-7.41,21.07.33,42.13,1.13,63.22.8,3.9-.06,7.45-2.2,11.12.3.8.55,2.79,3.66,4.27,6.32.93,1.67,1.66,3.17,1.77,3.74.52,2.69.81,6.57.77,10.8Z"
         id="path94" />
      <path
         class="cls-1"
         d="M322.78,280.82c-1.76,6.86-5.16,13.26-10.72,14.54-.19.05-.39.1-.58.13-.85.14-3.93.07-6.5-.13-1.88-.14-3.48-.35-3.79-.59-.58-.46,6.64-9.18,7.71-12.59.14-.45.26-.9.39-1.36,1.45-5.46,1.37-10.83.1-16.07-.69-2.86-1.73-5.67-3.06-8.44-.49-1.02-2.41-3.55-4.35-6.1-2.46-3.22-4.94-6.48-4.62-6.77.88-.75,10.4.5,12.24,1.16,2.63.92,5.14,3,7.33,5.61,3.54,4.25,6.2,9.94,7.04,14.54.08.45.15.89.19,1.31.39,3.65.02,9.35-1.37,14.76Z"
         id="path96" />
      <path
         d="M380.08,320.83h-47.87c-.12,0-1.91,1.3-1.91-.38v-9.02h46.74l3.05,9.4Z"
         id="path98" />
      <path
         d="M371.83,295.36h-20.91c3.41-3.8,5.97-8.43,7.53-13.41l.29-1.13h8.37l4.71,14.54Z"
         id="path100" />
    </g>
  </g>
</svg>
